<svg xmlns="http://www.w3.org/2000/svg" viewBox="0 0 256 256" fill="none">
  <defs>
    <linearGradient id="emerald" x1="0" y1="0" x2="1" y2="1">
      <stop offset="0%" stop-color="#34d399"/>
      <stop offset="100%" stop-color="#059669"/>
    </linearGradient>
  </defs>
  <!-- Shield -->
  <path d="M128 8 L215 45 L215 115 Q215 180 128 240 Q41 180 41 115 L41 45 Z" fill="#111827" stroke="url(#emerald)" stroke-width="4"/>
  <!-- Gorilla head -->
  <ellipse cx="128" cy="115" rx="44" ry="46" fill="#1e1e2e"/>
  <!-- Ears -->
  <ellipse cx="79" cy="95" rx="15" ry="18" fill="#1e1e2e" stroke="url(#emerald)" stroke-width="2"/>
  <ellipse cx="79" cy="95" rx="8" ry="11" fill="#2a2a3e"/>
  <ellipse cx="177" cy="95" rx="15" ry="18" fill="#1e1e2e" stroke="url(#emerald)" stroke-width="2"/>
  <ellipse cx="177" cy="95" rx="8" ry="11" fill="#2a2a3e"/>
  <!-- Face -->
  <ellipse cx="128" cy="119" rx="28" ry="25" fill="#2e2e42"/>
  <!-- Eyes -->
  <ellipse cx="114" cy="109" rx="6" ry="7" fill="#080c18"/>
  <ellipse cx="114" cy="109" rx="3.5" ry="4" fill="url(#emerald)"/>
  <ellipse cx="142" cy="109" rx="6" ry="7" fill="#080c18"/>
  <ellipse cx="142" cy="109" rx="3.5" ry="4" fill="url(#emerald)"/>
  <!-- Nose -->
  <ellipse cx="128" cy="121" rx="7" ry="5" fill="#1e1e2e"/>
  <ellipse cx="125" cy="120" rx="2.5" ry="3" fill="#12121e"/>
  <ellipse cx="131" cy="120" rx="2.5" ry="3" fill="#12121e"/>
  <!-- Mouth -->
  <path d="M117 129 Q128 136 139 129" fill="none" stroke="#12121e" stroke-width="2" stroke-linecap="round"/>
  <!-- Fur -->
  <path d="M89 74 Q95 65 100 74 Q107 62 114 71 Q120 64 128 70 Q136 64 142 71 Q149 62 156 74 Q161 65 167 74" fill="none" stroke="#1e1e2e" stroke-width="6" stroke-linecap="round"/>
</svg>
