<svg viewBox="0 0 24 24" fill="none" xmlns="http://www.w3.org/2000/svg">
<path d="M12 2C6.48 2 2 6.48 2 12C2 17.52 6.48 22 12 22C17.52 22 22 17.52 22 12C22 6.48 17.52 2 12 2ZM15.5 15.75C15.5 16.58 14.83 17.25 14 17.25H10C9.17 17.25 8.5 16.58 8.5 15.75V11.25C8.5 10.42 9.17 9.75 10 9.75H14C14.83 9.75 15.5 10.42 15.5 11.25V15.75Z" fill="#fff"/>
<path d="M12 2C6.48 2 2 6.48 2 12C2 17.52 6.48 22 12 22C17.52 22 22 17.52 22 12C22 6.48 17.52 2 12 2ZM15.5 15.75C15.5 16.58 14.83 17.25 14 17.25H10C9.17 17.25 8.5 16.58 8.5 15.75V11.25C8.5 10.42 9.17 9.75 10 9.75H14C14.83 9.75 15.5 10.42 15.5 11.25V15.75Z" fill="#fff"/>
</svg>